# xmcd
# Copyright (C) 1995-1998 Ti Kan
#
# Track frame offsets:
#       150
#       23718
#       54522
#       74598
#       86472
#       113835
#       134709
#       139472
#       153637
#       167592
#       192390
#       216081
#
# Disc length: 3155 seconds
#
# Revision: 0
# Processed by: cddbd v1.5.2PL0 Copyright (c) Steve Scherf et al.
# Submitted via: CD-Transfer v1.0
#
DISCID=b40c510c
DTITLE=S'quartet - Just So Stories
DYEAR=09
DGENRE=
TTITLE0=A Glimmer Of Ophelia
TTITLE1=One Of These Sundays
TTITLE2=Fast Illusion
TTITLE3=Nimble
TTITLE4=Leni
TTITLE5=Lovely Lark
TTITLE6=Flues
TTITLE7=Djireli
TTITLE8=Bits For Kids
TTITLE9=Alossa
TTITLE10=Gone To Fly
TTITLE11=Trippy Flash
EXTD=
EXTT0=
EXTT1=
EXTT2=
EXTT3=
EXTT4=
EXTT5=
EXTT6=
EXTT7=
EXTT8=
EXTT9=
EXTT10=
EXTT11=
PLAYORDER=
